<?xml version="1.0" standalone="no"?>
<!DOCTYPE svg PUBLIC "-//W3C//DTD SVG 20010904//EN"
 "http://www.w3.org/TR/2001/REC-SVG-20010904/DTD/svg10.dtd">
<svg version="1.0" xmlns="http://www.w3.org/2000/svg"
 width="1200.000000pt" height="1200.000000pt" viewBox="0 0 1200.000000 1200.000000"
 preserveAspectRatio="xMidYMid meet">
<metadata>
Created by potrace 1.14, written by Peter Selinger 2001-2017
</metadata>
<g transform="translate(0.000000,1200.000000) scale(0.100000,-0.100000)"
fill="#000000" stroke="none">
<path d="M0 6000 l0 -6000 6000 0 6000 0 0 6000 0 6000 -6000 0 -6000 0 0
-6000z m10800 450 l0 -1950 -1800 0 -1800 0 0 75 0 75 1725 0 1725 0 0 1800 0
1800 -4650 0 -4650 0 0 -1800 0 -1800 1725 0 1725 0 0 -75 0 -75 -1800 0
-1800 0 0 1950 0 1950 4800 0 4800 0 0 -1950z m-4492 404 c15 -4 22 -14 22
-30 0 -23 -3 -24 -60 -24 -56 0 -61 -2 -70 -26 -16 -42 -13 -44 61 -44 l70 0
-3 -27 c-3 -27 -5 -28 -70 -31 l-68 -3 0 -129 0 -130 -40 0 -40 0 0 130 0 130
-34 0 c-35 0 -46 12 -38 43 3 12 14 17 37 17 30 0 33 3 39 38 5 37 34 73 66
85 21 8 100 8 128 1z m370 0 c15 -4 22 -14 22 -30 0 -23 -3 -24 -60 -24 -56 0
-61 -2 -70 -26 -16 -42 -13 -44 61 -44 l70 0 -3 -27 c-3 -27 -5 -28 -70 -31
l-68 -3 0 -129 0 -130 -40 0 -40 0 0 130 0 130 -34 0 c-35 0 -46 12 -38 43 3
12 14 17 37 17 30 0 33 3 39 38 5 37 34 73 66 85 21 8 100 8 128 1z m-3398
-34 c0 -29 -2 -30 -45 -30 -43 0 -45 1 -45 30 0 29 2 30 45 30 43 0 45 -1 45
-30z m2590 0 c0 -29 -2 -30 -45 -30 -43 0 -45 1 -45 30 0 29 2 30 45 30 43 0
45 -1 45 -30z m1110 0 c0 -29 -2 -30 -45 -30 -43 0 -45 1 -45 30 0 29 2 30 45
30 43 0 45 -1 45 -30z m628 -55 l-6 -85 34 30 c58 50 138 35 161 -30 7 -19 12
-88 12 -152 l1 -118 -39 0 -39 0 -3 121 c-4 105 -6 122 -23 135 -28 20 -43 18
-71 -11 -24 -23 -25 -31 -25 -135 l0 -110 -45 0 -45 0 0 220 0 220 46 0 47 0
-5 -85z m-5128 5 l0 -40 54 0 c43 0 55 -4 58 -17 9 -35 -2 -43 -58 -43 l-54 0
0 -93 c0 -59 4 -97 12 -105 7 -7 36 -12 65 -12 50 0 53 -2 53 -24 0 -22 -6
-26 -46 -32 -61 -9 -112 1 -140 27 -22 21 -24 30 -24 131 l0 108 -25 0 c-21 0
-25 5 -25 30 0 25 4 30 25 30 14 0 28 6 30 13 22 63 25 67 50 67 23 0 25 -4
25 -40z m1480 0 l0 -40 54 0 c43 0 55 -4 58 -17 9 -35 -2 -43 -58 -43 l-54 0
0 -93 c0 -59 4 -97 12 -105 7 -7 36 -12 65 -12 50 0 53 -2 53 -24 0 -22 -6
-26 -46 -32 -61 -9 -112 1 -140 27 -22 21 -24 30 -24 131 l0 108 -25 0 c-21 0
-25 5 -25 30 0 25 4 30 25 30 14 0 28 6 30 13 22 63 25 67 50 67 23 0 25 -4
25 -40z m3330 0 l0 -40 54 0 c43 0 55 -4 58 -17 9 -35 -2 -43 -58 -43 l-54 0
0 -93 c0 -59 4 -97 12 -105 7 -7 36 -12 65 -12 50 0 53 -2 53 -24 0 -22 -6
-26 -46 -32 -61 -9 -112 1 -140 27 -22 21 -24 30 -24 131 l0 108 -25 0 c-21 0
-25 5 -25 30 0 25 4 30 25 30 14 0 28 6 30 13 22 63 25 67 50 67 23 0 25 -4
25 -40z m2220 0 l0 -40 54 0 c43 0 55 -4 58 -17 9 -35 -2 -43 -58 -43 l-54 0
0 -93 c0 -59 4 -97 12 -105 7 -7 36 -12 65 -12 50 0 53 -2 53 -24 0 -22 -6
-26 -46 -32 -61 -9 -112 1 -140 27 -22 21 -24 30 -24 131 l0 108 -25 0 c-21 0
-25 5 -25 30 0 25 4 30 25 30 14 0 28 6 30 13 22 63 25 67 50 67 23 0 25 -4
25 -40z m-6520 -65 c0 -34 -1 -35 -40 -35 -92 0 -120 -39 -120 -170 l0 -91
-42 3 -42 3 -2 120 c0 66 -4 137 -8 158 l-7 37 41 0 c36 0 41 -3 46 -28 l6
-28 33 33 c29 29 40 33 84 33 l51 0 0 -35z m667 24 c29 -11 73 -47 73 -60 0
-4 -14 -10 -31 -14 -22 -5 -36 -2 -49 10 -20 19 -86 23 -102 7 -5 -5 -8 -18
-6 -28 2 -14 23 -24 77 -39 90 -25 126 -59 117 -113 -7 -44 -30 -69 -75 -82
-79 -22 -163 -4 -195 41 -22 32 -21 36 15 43 24 4 35 1 48 -15 12 -16 28 -21
63 -21 55 0 68 6 68 31 0 27 -18 38 -90 54 -72 17 -110 50 -110 95 0 76 107
125 197 91z m738 -3 c54 -23 60 -45 64 -244 1 -15 8 -26 21 -29 26 -7 26 -40
0 -48 -34 -11 -76 4 -89 31 l-11 25 -24 -28 c-21 -24 -32 -28 -74 -28 -59 0
-89 21 -98 71 -13 70 47 124 139 124 45 0 47 1 47 29 0 29 -22 61 -41 61 -6 0
-20 -11 -33 -25 -17 -18 -34 -25 -60 -25 -40 0 -45 12 -20 49 33 47 114 64
179 37z m405 -1 c39 -20 50 -64 50 -202 l0 -113 -39 0 -39 0 -3 121 c-4 105
-6 122 -23 135 -28 20 -43 18 -71 -11 -24 -23 -25 -31 -25 -135 l0 -110 -45 0
-45 0 0 160 0 160 40 0 c36 0 40 -2 40 -26 l0 -26 35 31 c40 35 79 40 125 16z
m309 -11 c30 -25 31 -25 31 -5 0 18 6 21 40 21 l40 0 0 -172 c0 -197 -9 -230
-70 -260 -66 -33 -163 -14 -197 39 -14 20 -12 21 27 28 31 5 44 3 53 -8 39
-50 96 -18 104 58 l6 50 -25 -23 c-55 -50 -140 -35 -172 32 -20 43 -21 143 -1
194 29 71 108 94 164 46z m471 -9 c0 -34 -1 -35 -40 -35 -92 0 -120 -39 -120
-170 l0 -91 -42 3 -42 3 -2 120 c0 66 -4 137 -8 158 l-7 37 41 0 c36 0 41 -3
46 -28 l6 -28 33 33 c29 29 40 33 84 33 l51 0 0 -35z m2517 24 c29 -11 73 -47
73 -60 0 -4 -14 -10 -31 -14 -22 -5 -36 -2 -49 10 -20 19 -86 23 -102 7 -5 -5
-8 -18 -6 -28 2 -14 23 -24 77 -39 90 -25 126 -59 117 -113 -7 -44 -30 -69
-75 -82 -79 -22 -163 -4 -195 41 -22 32 -21 36 15 43 24 4 35 1 48 -15 12 -16
28 -21 63 -21 55 0 68 6 68 31 0 27 -18 38 -90 54 -72 17 -110 50 -110 95 0
76 107 125 197 91z m773 -4 c39 -20 50 -64 50 -202 l0 -113 -39 0 -39 0 -3
121 c-4 105 -6 122 -23 135 -28 20 -43 18 -71 -11 -24 -23 -25 -31 -25 -135
l0 -110 -45 0 -45 0 0 160 0 160 40 0 c36 0 40 -2 40 -26 l0 -26 35 31 c40 35
79 40 125 16z m344 0 c37 -18 71 -72 79 -127 l6 -38 -110 0 c-103 0 -109 -1
-109 -21 0 -23 18 -60 34 -71 23 -16 75 -8 90 13 12 18 21 20 51 15 35 -7 36
-8 22 -29 -40 -61 -139 -85 -207 -50 -93 48 -107 232 -21 292 47 33 115 40
165 16z m-5934 -125 l0 -130 50 0 c49 0 50 -1 50 -30 l0 -30 -150 0 -150 0 0
30 c0 30 1 30 55 30 l55 0 0 100 0 100 -40 0 c-38 0 -40 2 -40 30 l0 30 85 0
85 0 0 -130z m2590 0 l0 -130 50 0 c49 0 50 -1 50 -30 l0 -30 -150 0 -150 0 0
30 c0 30 1 30 55 30 l55 0 0 100 0 100 -40 0 c-38 0 -40 2 -40 30 l0 30 85 0
85 0 0 -130z m1110 0 l0 -130 50 0 c49 0 50 -1 50 -30 l0 -30 -150 0 -150 0 0
30 c0 30 1 30 55 30 l55 0 0 100 0 100 -40 0 c-38 0 -40 2 -40 30 l0 30 85 0
85 0 0 -130z m1470 -145 l0 -45 -45 0 -45 0 0 45 0 45 45 0 45 0 0 -45z
m-1583 -1118 c26 -25 28 -34 31 -122 l4 -95 -901 0 -901 0 0 89 c0 81 2 92 25
120 14 16 36 32 48 34 12 3 392 4 844 3 l823 -1 27 -28z m33 -917 c0 -602 -1
-620 -19 -630 -27 -14 -1735 -14 -1762 0 -18 10 -19 28 -19 630 l0 620 900 0
900 0 0 -620z"/>
<path d="M4281 6536 c-7 -8 -11 -27 -9 -43 7 -59 98 -29 98 32 0 22 -4 25 -39
25 -21 0 -44 -6 -50 -14z"/>
<path d="M5035 6660 c-14 -16 -19 -37 -19 -85 0 -71 19 -105 59 -105 40 0 60
35 60 105 0 48 -5 68 -19 84 -24 27 -58 27 -81 1z"/>
<path d="M9106 6669 c-14 -11 -26 -29 -26 -40 0 -17 8 -19 69 -19 l70 0 -11
30 c-17 52 -58 63 -102 29z"/>
<path d="M5627 4749 c-9 -6 -17 -18 -17 -27 0 -9 43 -62 95 -117 52 -55 94
-103 95 -106 0 -3 -45 -48 -100 -99 -55 -50 -100 -100 -100 -110 0 -24 25 -43
47 -36 10 3 72 60 137 125 l119 120 -113 121 c-124 133 -137 143 -163 129z"/>
<path d="M5899 4304 c-9 -11 -10 -20 -2 -32 9 -15 38 -17 263 -17 222 0 254 2
263 16 6 9 7 24 4 33 -6 14 -34 16 -260 16 -220 0 -256 -2 -268 -16z"/>
</g>
</svg>
