<?xml version="1.0" standalone="no"?>
<!DOCTYPE svg PUBLIC "-//W3C//DTD SVG 20010904//EN"
 "http://www.w3.org/TR/2001/REC-SVG-20010904/DTD/svg10.dtd">
<svg version="1.0" xmlns="http://www.w3.org/2000/svg"
 width="189.000000pt" height="189.000000pt" viewBox="0 0 189.000000 189.000000"
 preserveAspectRatio="xMidYMid meet">
<metadata>
Created by potrace 1.14, written by Peter Selinger 2001-2017
</metadata>
<g transform="translate(0.000000,189.000000) scale(0.100000,-0.100000)"
fill="#000000" stroke="none">
<path d="M190 1742 c-83 -3 -99 -10 -120 -45 -16 -25 -20 -50 -20 -119 l0 -88
901 0 901 0 -4 99 c-4 96 -5 101 -33 125 -23 20 -41 26 -75 26 -762 3 -1508 4
-1550 2z"/>
<path d="M50 800 c0 -534 2 -619 15 -630 22 -18 1748 -18 1770 0 13 11 15 94
15 630 l0 618 -900 0 -900 -1 0 -617z m677 208 c68 -68 123 -127 123 -131 0
-5 -55 -62 -122 -128 -126 -121 -160 -141 -173 -98 -4 11 -4 24 -1 27 4 4 50
51 104 104 l97 98 -98 98 c-108 108 -123 146 -62 151 5 1 65 -54 132 -121z
m644 -324 c17 -20 7 -47 -21 -54 -14 -3 -130 -6 -258 -5 -193 0 -235 3 -242
15 -13 20 -12 26 5 44 21 20 499 21 516 0z"/>
</g>
</svg>
